<svg width="233" height="60" viewBox="0 0 233 60" fill="none" xmlns="http://www.w3.org/2000/svg">
<g filter="url(#filter0_d_45_301)">
<path d="M17.5739 33.6364C17.446 32.5568 16.9276 31.7188 16.0185 31.1222C15.1094 30.5256 13.9943 30.2273 12.6733 30.2273C11.7074 30.2273 10.8622 30.3835 10.1378 30.696C9.42045 31.0085 8.85938 31.4382 8.45455 31.9851C8.05682 32.532 7.85795 33.1534 7.85795 33.8494C7.85795 34.4318 7.99645 34.9325 8.27344 35.3516C8.55753 35.7635 8.91974 36.108 9.36009 36.3849C9.80043 36.6548 10.2621 36.8786 10.745 37.0561C11.228 37.2266 11.6719 37.3651 12.0767 37.4716L14.2926 38.0682C14.8608 38.2173 15.4929 38.4233 16.1889 38.6861C16.892 38.9489 17.5632 39.3075 18.2024 39.7621C18.8487 40.2095 19.3814 40.7848 19.8004 41.4879C20.2195 42.1911 20.429 43.054 20.429 44.0767C20.429 45.2557 20.12 46.321 19.5021 47.2727C18.8913 48.2244 17.9964 48.9808 16.8175 49.5419C15.6456 50.103 14.2216 50.3835 12.5455 50.3835C10.983 50.3835 9.62997 50.1314 8.48651 49.6271C7.35014 49.1229 6.45526 48.4197 5.80185 47.5178C5.15554 46.6158 4.78977 45.5682 4.70455 44.375H7.43182C7.50284 45.1989 7.77983 45.8807 8.26278 46.4205C8.75284 46.9531 9.37074 47.3509 10.1165 47.6136C10.8693 47.8693 11.679 47.9972 12.5455 47.9972C13.554 47.9972 14.4595 47.8338 15.2621 47.5071C16.0646 47.1733 16.7003 46.7116 17.169 46.1222C17.6378 45.5256 17.8722 44.8295 17.8722 44.0341C17.8722 43.3097 17.6697 42.7202 17.2649 42.2656C16.8601 41.8111 16.3274 41.4418 15.6669 41.1577C15.0064 40.8736 14.2926 40.625 13.5256 40.4119L10.8409 39.6449C9.13636 39.1548 7.78693 38.4553 6.79261 37.5462C5.7983 36.6371 5.30114 35.4474 5.30114 33.9773C5.30114 32.7557 5.63139 31.6903 6.2919 30.7812C6.95952 29.8651 7.8544 29.1548 8.97656 28.6506C10.1058 28.1392 11.3665 27.8835 12.7585 27.8835C14.1648 27.8835 15.4148 28.1357 16.5085 28.6399C17.6023 29.1371 18.4688 29.8189 19.108 30.6854C19.7543 31.5518 20.0952 32.5355 20.1307 33.6364H17.5739ZM29.9462 40.1562V50H27.432V28.1818H29.9462V36.1932H30.1593C30.5428 35.348 31.1181 34.6768 31.8851 34.1797C32.6593 33.6754 33.6891 33.4233 34.9746 33.4233C36.0897 33.4233 37.0662 33.647 37.9043 34.0945C38.7424 34.5348 39.3922 35.2131 39.8539 36.1293C40.3226 37.0384 40.557 38.196 40.557 39.6023V50H38.0428V39.7727C38.0428 38.473 37.7054 37.468 37.0307 36.7578C36.3631 36.0405 35.4363 35.6818 34.2502 35.6818C33.4263 35.6818 32.6877 35.8558 32.0343 36.2038C31.388 36.5518 30.8766 37.0597 30.5002 37.7273C30.1309 38.3949 29.9462 39.2045 29.9462 40.1562ZM48.1566 50V33.6364H50.6708V50H48.1566ZM49.435 30.9091C48.945 30.9091 48.5224 30.7422 48.1673 30.4084C47.8192 30.0746 47.6452 29.6733 47.6452 29.2045C47.6452 28.7358 47.8192 28.3345 48.1673 28.0007C48.5224 27.6669 48.945 27.5 49.435 27.5C49.9251 27.5 50.3441 27.6669 50.6921 28.0007C51.0472 28.3345 51.2248 28.7358 51.2248 29.2045C51.2248 29.6733 51.0472 30.0746 50.6921 30.4084C50.3441 30.7422 49.9251 30.9091 49.435 30.9091ZM60.79 40.1562V50H58.2757V33.6364H60.7047V36.1932H60.9178C61.3013 35.3622 61.8837 34.6946 62.665 34.1903C63.4462 33.679 64.4547 33.4233 65.6905 33.4233C66.7985 33.4233 67.7679 33.6506 68.5989 34.1051C69.4299 34.5526 70.0762 35.2344 70.5378 36.1506C70.9995 37.0597 71.2303 38.2102 71.2303 39.6023V50H68.7161V39.7727C68.7161 38.4872 68.3823 37.4858 67.7147 36.7685C67.0471 36.044 66.1309 35.6818 64.9661 35.6818C64.1635 35.6818 63.4462 35.8558 62.8141 36.2038C62.1891 36.5518 61.6955 37.0597 61.3333 37.7273C60.9711 38.3949 60.79 39.2045 60.79 40.1562ZM85.6854 50.3409C84.1087 50.3409 82.7486 49.9929 81.6051 49.2969C80.4688 48.5938 79.5916 47.6136 78.9737 46.3565C78.3629 45.0923 78.0575 43.6222 78.0575 41.946C78.0575 40.2699 78.3629 38.7926 78.9737 37.5142C79.5916 36.2287 80.451 35.2273 81.5518 34.5099C82.6598 33.7855 83.9524 33.4233 85.4297 33.4233C86.282 33.4233 87.1236 33.5653 87.9545 33.8494C88.7855 34.1335 89.5419 34.5952 90.2237 35.2344C90.9055 35.8665 91.4489 36.7045 91.8537 37.7486C92.2585 38.7926 92.4609 40.0781 92.4609 41.6051V42.6705H79.8473V40.4972H89.9041C89.9041 39.5739 89.7195 38.75 89.3501 38.0256C88.9879 37.3011 88.4695 36.7294 87.7947 36.3104C87.1271 35.8913 86.3388 35.6818 85.4297 35.6818C84.4283 35.6818 83.5618 35.9304 82.8303 36.4276C82.1058 36.9176 81.5483 37.5568 81.1577 38.3452C80.767 39.1335 80.5717 39.9787 80.5717 40.8807V42.3295C80.5717 43.5653 80.7848 44.6129 81.2109 45.4723C81.6442 46.3246 82.2443 46.9744 83.0114 47.4219C83.7784 47.8622 84.6697 48.0824 85.6854 48.0824C86.3459 48.0824 86.9425 47.9901 87.4751 47.8054C88.0149 47.6136 88.4801 47.3295 88.8707 46.9531C89.2614 46.5696 89.5632 46.0937 89.7763 45.5256L92.2053 46.2074C91.9496 47.0312 91.5199 47.7557 90.9162 48.3807C90.3125 48.9986 89.5668 49.4815 88.679 49.8295C87.7912 50.1705 86.7933 50.3409 85.6854 50.3409Z" fill="url(#paint0_linear_45_301)"/>
</g>
<path d="M137.342 18.7089L137.205 19.1206L137.593 19.3145L146.841 23.9335C147.717 24.3716 147.728 25.6228 146.822 26.0761C146.822 26.0762 146.822 26.0762 146.822 26.0762L137.573 30.6953L137.185 30.8892L137.323 31.3008L140.594 41.1055L140.595 41.1085C140.909 42.0296 140.029 42.923 139.087 42.6113C139.087 42.6113 139.087 42.6113 139.087 42.6112L129.283 39.3402L128.871 39.2028L128.677 39.591L124.058 48.8389C124.058 48.8389 124.058 48.839 124.058 48.8391C123.617 49.7203 122.366 49.7203 121.925 48.8391C121.925 48.839 121.925 48.8389 121.925 48.8389L117.306 39.591L117.112 39.2028L116.7 39.3402L106.895 42.6116L106.892 42.6127C105.971 42.9265 105.077 42.0468 105.389 41.1047C105.389 41.1045 105.389 41.1044 105.389 41.1043L108.66 31.2909L108.798 30.8793L108.409 30.6855L99.1611 26.0665C99.1611 26.0664 99.161 26.0664 99.161 26.0664C98.2796 25.6255 98.2797 24.3743 99.1611 23.9335L99.1613 23.9335L108.41 19.3045L108.798 19.1105L108.66 18.6992L105.389 8.89447L105.389 8.89447L105.388 8.89146C105.074 7.97052 105.953 7.07717 106.896 7.38864C106.896 7.38868 106.896 7.38872 106.896 7.38875L116.71 10.6599L117.122 10.7971L117.315 10.409L121.935 1.16112C121.935 1.16105 121.935 1.16099 121.935 1.16093C122.376 0.279629 123.627 0.279691 124.068 1.16112L128.697 10.4189L128.891 10.8069L129.302 10.6696L139.108 7.39813L139.111 7.39711C140.031 7.08336 140.924 7.96245 140.614 8.90424C140.614 8.90463 140.613 8.90503 140.613 8.90543L137.342 18.7089ZM114.126 25C114.126 20.1101 118.111 16.125 123.001 16.125C127.891 16.125 131.877 20.1101 131.877 25C131.877 29.8899 127.891 33.875 123.001 33.875C118.111 33.875 114.126 29.8899 114.126 25ZM113.809 34.1915C118.878 39.2598 127.125 39.2598 132.193 34.1915C137.262 29.1231 137.262 20.8769 132.193 15.8085C127.125 10.7402 118.878 10.7402 113.809 15.8085C108.741 20.8769 108.741 29.1231 113.809 34.1915Z" fill="url(#paint1_linear_45_301)" stroke="url(#paint2_linear_45_301)"/>
<g filter="url(#filter1_d_45_301)">
<path d="M158.815 40.1562V50H156.301V33.6364H158.73V36.1932H158.943C159.327 35.3622 159.909 34.6946 160.69 34.1903C161.472 33.679 162.48 33.4233 163.716 33.4233C164.824 33.4233 165.793 33.6506 166.624 34.1051C167.455 34.5526 168.102 35.2344 168.563 36.1506C169.025 37.0597 169.256 38.2102 169.256 39.6023V50H166.741V39.7727C166.741 38.4872 166.408 37.4858 165.74 36.7685C165.072 36.044 164.156 35.6818 162.991 35.6818C162.189 35.6818 161.472 35.8558 160.839 36.2038C160.214 36.5518 159.721 37.0597 159.359 37.7273C158.996 38.3949 158.815 39.2045 158.815 40.1562ZM173.089 28.1818H176.115L182.166 38.3665H182.422L188.473 28.1818H191.498L183.615 41.0085V50H180.973V41.0085L173.089 28.1818ZM201.908 50.3409C200.431 50.3409 199.134 49.9893 198.019 49.2862C196.911 48.5831 196.045 47.5994 195.42 46.3352C194.802 45.071 194.493 43.5937 194.493 41.9034C194.493 40.1989 194.802 38.7109 195.42 37.4396C196.045 36.1683 196.911 35.1811 198.019 34.478C199.134 33.7749 200.431 33.4233 201.908 33.4233C203.385 33.4233 204.678 33.7749 205.786 34.478C206.901 35.1811 207.767 36.1683 208.385 37.4396C209.01 38.7109 209.323 40.1989 209.323 41.9034C209.323 43.5937 209.01 45.071 208.385 46.3352C207.767 47.5994 206.901 48.5831 205.786 49.2862C204.678 49.9893 203.385 50.3409 201.908 50.3409ZM201.908 48.0824C203.03 48.0824 203.953 47.7947 204.678 47.2195C205.402 46.6442 205.938 45.8878 206.286 44.9503C206.634 44.0128 206.808 42.9972 206.808 41.9034C206.808 40.8097 206.634 39.7905 206.286 38.8459C205.938 37.9013 205.402 37.1378 204.678 36.5554C203.953 35.973 203.03 35.6818 201.908 35.6818C200.786 35.6818 199.862 35.973 199.138 36.5554C198.414 37.1378 197.877 37.9013 197.529 38.8459C197.181 39.7905 197.007 40.8097 197.007 41.9034C197.007 42.9972 197.181 44.0128 197.529 44.9503C197.877 45.8878 198.414 46.6442 199.138 47.2195C199.862 47.7947 200.786 48.0824 201.908 48.0824ZM226.473 43.3097V33.6364H228.987V50H226.473V47.2301H226.303C225.919 48.0611 225.322 48.7678 224.513 49.3501C223.703 49.9254 222.68 50.2131 221.445 50.2131C220.422 50.2131 219.513 49.9893 218.717 49.5419C217.922 49.0874 217.297 48.4055 216.842 47.4964C216.388 46.5803 216.161 45.4261 216.161 44.0341V33.6364H218.675V43.8636C218.675 45.0568 219.009 46.0085 219.676 46.7188C220.351 47.429 221.21 47.7841 222.254 47.7841C222.879 47.7841 223.515 47.6243 224.161 47.3047C224.815 46.9851 225.362 46.495 225.802 45.8345C226.249 45.174 226.473 44.3324 226.473 43.3097Z" fill="url(#paint3_linear_45_301)"/>
</g>
<defs>
<filter id="filter0_d_45_301" x="0.70459" y="27.5" width="95.7563" height="30.8835" filterUnits="userSpaceOnUse" color-interpolation-filters="sRGB">
<feFlood flood-opacity="0" result="BackgroundImageFix"/>
<feColorMatrix in="SourceAlpha" type="matrix" values="0 0 0 0 0 0 0 0 0 0 0 0 0 0 0 0 0 0 127 0" result="hardAlpha"/>
<feOffset dy="4"/>
<feGaussianBlur stdDeviation="2"/>
<feComposite in2="hardAlpha" operator="out"/>
<feColorMatrix type="matrix" values="0 0 0 0 0.585732 0 0 0 0 0.751439 0 0 0 0 1 0 0 0 1 0"/>
<feBlend mode="normal" in2="BackgroundImageFix" result="effect1_dropShadow_45_301"/>
<feBlend mode="normal" in="SourceGraphic" in2="effect1_dropShadow_45_301" result="shape"/>
</filter>
<filter id="filter1_d_45_301" x="152.301" y="28.1818" width="80.686" height="30.1591" filterUnits="userSpaceOnUse" color-interpolation-filters="sRGB">
<feFlood flood-opacity="0" result="BackgroundImageFix"/>
<feColorMatrix in="SourceAlpha" type="matrix" values="0 0 0 0 0 0 0 0 0 0 0 0 0 0 0 0 0 0 127 0" result="hardAlpha"/>
<feOffset dy="4"/>
<feGaussianBlur stdDeviation="2"/>
<feComposite in2="hardAlpha" operator="out"/>
<feColorMatrix type="matrix" values="0 0 0 0 0.585732 0 0 0 0 0.751439 0 0 0 0 1 0 0 0 1 0"/>
<feBlend mode="normal" in2="BackgroundImageFix" result="effect1_dropShadow_45_301"/>
<feBlend mode="normal" in="SourceGraphic" in2="effect1_dropShadow_45_301" result="shape"/>
</filter>
<linearGradient id="paint0_linear_45_301" x1="51.3561" y1="19" x2="51.644" y2="60" gradientUnits="userSpaceOnUse">
<stop stop-color="#95C0FF"/>
<stop offset="1" stop-color="#666666"/>
</linearGradient>
<linearGradient id="paint1_linear_45_301" x1="105.36" y1="1.12364e-06" x2="148" y2="35.3682" gradientUnits="userSpaceOnUse">
<stop stop-color="#95C0FF"/>
<stop offset="0.5" stop-color="white"/>
<stop offset="1" stop-color="#797979"/>
</linearGradient>
<linearGradient id="paint2_linear_45_301" x1="148" y1="43.4918" x2="98" y2="6.50822" gradientUnits="userSpaceOnUse">
<stop stop-color="#ADC7EF"/>
<stop offset="1" stop-color="#666666"/>
</linearGradient>
<linearGradient id="paint3_linear_45_301" x1="193.32" y1="19" x2="192.68" y2="60" gradientUnits="userSpaceOnUse">
<stop stop-color="#95C0FF"/>
<stop offset="1" stop-color="#666666"/>
</linearGradient>
</defs>
</svg>
